<svg xmlns="http://www.w3.org/2000/svg" width="72" height="72" viewBox="0 0 72 72" fill="none"><rect x="0.5" y="0.5" width="71" height="71" rx="9.78571" fill="white"></rect><g clip-path="url(#clip0_656_259)"><path d="M51.7342 40.7335L54.7659 34.9565L42.1342 22.3248H37.769L19.4966 37.2421L35.9684 53.7139L51.7342 40.7335Z" fill="#FFE1C7"></path><path d="M35.9685 53.7139L51.7342 40.7335L54.7659 34.9565L48.569 28.7595L29.7915 47.5371L35.9685 53.7139Z" fill="#FFE1C7"></path><path d="M42.1343 22.3248L54.766 34.9565L58.597 31.1256C59.1344 30.5881 59.1344 29.7169 58.597 29.1794L47.9113 18.4938C47.3739 17.9563 46.5026 17.9563 45.9652 18.4938L42.1343 22.3248Z" fill="#47568C"></path><path d="M53.3731 23.9556L48.5691 28.7596L54.766 34.9566L58.5971 31.1256C59.1345 30.5882 59.1345 29.7169 58.5971 29.1795" fill="#47568C"></path><path d="M52.0255 41.0248L39.0632 28.0623C38.3053 27.3044 38.3053 26.0758 39.0632 25.318L42.0953 22.2858L38.4895 20.9235C37.1986 20.4358 35.8635 20.0743 34.5028 19.8444L28.8742 18.8929L16.248 31.5192L18.7707 37.9682L29.7518 51.6947L35.5538 57.4967C36.6909 58.6338 38.5345 58.6338 39.6717 57.4967C40.8088 56.3595 40.8088 54.5159 39.6717 53.3788L35.5533 49.2603L39.6718 53.3789C40.8089 54.516 42.6525 54.516 43.7897 53.3789C44.9268 52.2417 44.9268 50.3982 43.7898 49.2609C44.9269 50.398 46.7704 50.398 47.9076 49.2609C49.0447 48.1236 49.0447 46.28 47.9076 45.1429C49.0447 46.28 50.8883 46.28 52.0254 45.1429C53.1626 44.0055 53.1626 42.1619 52.0255 41.0248Z" fill="#FFBE85"></path><path d="M29.7519 51.6947L35.5539 57.4967C36.691 58.6338 38.5346 58.6338 39.6718 57.4967C40.8089 56.3595 40.8089 54.5159 39.6718 53.3787L35.5534 49.2603L39.6719 53.3788C40.809 54.516 42.6526 54.516 43.7898 53.3788C44.9269 52.2417 44.9269 50.3982 43.7899 49.2609C44.927 50.398 46.7705 50.398 47.9077 49.2608C49.0448 48.1236 49.0448 46.28 47.9077 45.1428C49.0448 46.28 50.8884 46.28 52.0255 45.1428C53.1626 44.0057 53.1626 42.1621 52.0255 41.0249L44.1647 33.1641L27.9219 49.4069L29.7519 51.6947Z" fill="#FFBE85"></path><path d="M28.8658 18.8846L16.2341 31.5164L12.4031 27.6853C11.8656 27.1479 11.8656 26.2767 12.4031 25.7392L23.0888 15.0536C23.6262 14.5162 24.4974 14.5162 25.0349 15.0536L28.8658 18.8846Z" fill="#47568C"></path><path d="M23.6147 41.3601L19.8321 45.1427C18.695 46.2798 18.695 48.1235 19.8321 49.2606C20.9692 50.3978 22.8129 50.3978 23.95 49.2606L27.7326 45.478C28.8697 44.3409 28.8697 42.4973 27.7326 41.3601C26.5956 40.223 24.7518 40.223 23.6147 41.3601Z" fill="#FFE1C7"></path><path d="M27.7326 45.478L23.95 49.2606C22.8129 50.3978 22.8129 52.2414 23.95 53.3785C25.0872 54.5157 26.9308 54.5157 28.0679 53.3785L31.8505 49.5959C32.9877 48.4588 32.9877 46.6152 31.8505 45.478C30.7134 44.3409 28.8698 44.3409 27.7326 45.478Z" fill="#FFE1C7"></path><path d="M23.95 53.3786C25.0871 54.5158 26.9307 54.5158 28.0679 53.3786L31.8505 49.5959C32.9876 48.4588 32.9876 46.6152 31.8505 45.478L23.95 53.3786Z" fill="#FFE1C7"></path><path d="M31.8505 49.596L28.0679 53.3786C26.9308 54.5157 26.9308 56.3594 28.0679 57.4965C29.2051 58.6337 31.0487 58.6337 32.1858 57.4965L35.9684 53.7139C37.1056 52.5768 37.1056 50.7332 35.9684 49.596C34.8314 48.4589 32.9877 48.4589 31.8505 49.596Z" fill="#FFE1C7"></path><path d="M19.4968 37.2421L15.7142 41.0247C14.577 42.1619 14.577 44.0055 15.7142 45.1426C16.8513 46.2798 18.695 46.2798 19.8321 45.1426L23.6147 41.36C24.7518 40.2229 24.7518 38.3793 23.6147 37.2421C22.4775 36.105 20.6339 36.105 19.4968 37.2421Z" fill="#FFE1C7"></path></g><rect x="0.5" y="0.5" width="71" height="71" rx="9.78571" stroke="#E8CEB6"></rect><defs><clipPath id="clip0_656_259"><rect width="47" height="47" fill="white" transform="translate(12 13)"></rect></clipPath></defs></svg>