<svg xmlns="http://www.w3.org/2000/svg" width="72" height="72" viewBox="0 0 72 72" fill="none"><rect x="0.5" y="0.5" width="71" height="71" rx="9.78571" fill="white"></rect><g clip-path="url(#clip0_656_238)"><path d="M47.7188 58.0703H41.8594C41.0497 58.0703 40.3945 57.4151 40.3945 56.6055C40.3945 55.7958 41.0497 55.1406 41.8594 55.1406H47.7188C50.142 55.1406 52.1133 53.1693 52.1133 50.7461V47.8164C52.1133 47.0067 52.7685 46.3516 53.5781 46.3516C54.3878 46.3516 55.043 47.0067 55.043 47.8164V50.7461C55.043 54.7845 51.7571 58.0703 47.7188 58.0703Z" fill="#B5DBFF"></path><path d="M11 38.9297C11 42.9477 12.2993 46.815 16.2743 46.815C17.3744 46.815 18.3786 46.4975 18.9794 46.1971V31.76C18.3735 31.4574 17.3591 31.1359 16.249 31.1402C12.2865 31.1559 11 34.9358 11 38.9297Z" fill="#6AA9FF"></path><path d="M36 11C25.5 11 16.8594 19.6406 16.8594 30.1406C16.8594 30.9503 17.5146 31.6055 18.3242 31.6055C19.1339 31.6055 19.7891 30.9503 19.7891 30.1406C19.7891 21.2558 27.1151 13.9297 36 13.9297C44.8849 13.9297 52.1133 21.2558 52.1133 30.1406C52.1133 30.9503 52.7685 31.6055 53.5781 31.6055C54.3878 31.6055 55.043 30.9503 55.043 30.1406C55.043 19.6406 46.5 11 36 11Z" fill="#B5DBFF"></path><path d="M52.1133 30.1406C52.1133 30.9503 52.7685 31.6055 53.5781 31.6055C54.3878 31.6055 55.043 30.9503 55.043 30.1406C55.043 19.6406 46.5 11 36 11V13.9297C44.8849 13.9297 52.1133 21.2558 52.1133 30.1406Z" fill="#B5DBFF"></path><path d="M38.9297 52.2109H36C33.5768 52.2109 31.6055 54.1822 31.6055 56.6055C31.6055 59.0287 33.5768 61 36 61H38.9297C41.3529 61 43.3242 59.0287 43.3242 56.6055C43.3242 54.1822 41.3529 52.2109 38.9297 52.2109Z" fill="#6AA9FF"></path><path d="M43.3242 56.6055C43.3242 54.1822 41.3529 52.2109 38.9297 52.2109H36V61H38.9297C41.3529 61 43.3242 59.0287 43.3242 56.6055Z" fill="#6AA9FF"></path><path d="M18.3242 49.2812C17.5146 49.2812 16.8594 48.6261 16.8594 47.8164V30.1406C16.8594 29.331 17.5146 28.6758 18.3242 28.6758C19.1339 28.6758 19.7891 29.331 19.7891 30.1406V47.8164C19.7891 48.6261 19.1339 49.2812 18.3242 49.2812Z" fill="black"></path><path d="M53.5781 49.2812C52.7685 49.2812 52.1133 48.6261 52.1133 47.8164V30.1406C52.1133 29.331 52.7685 28.6758 53.5781 28.6758C54.3878 28.6758 55.043 29.331 55.043 30.1406V47.8164C55.043 48.6261 54.3878 49.2812 53.5781 49.2812Z" fill="black"></path><path d="M55.653 31.1419C54.5425 31.1373 53.528 31.4581 52.9229 31.76V46.1971C53.5236 46.4975 54.5279 46.815 55.6279 46.815C59.6093 46.815 60.9999 42.9366 60.9999 38.9297C60.9999 34.9386 59.6191 31.1582 55.653 31.1419Z" fill="#6AA9FF"></path><path d="M21.2539 49.2812H18.3242C17.5146 49.2812 16.8594 48.6261 16.8594 47.8164V30.1406C16.8594 29.331 17.5146 28.6758 18.3242 28.6758H21.2539C22.0636 28.6758 22.7188 29.331 22.7188 30.1406V47.8164C22.7188 48.6261 22.0636 49.2812 21.2539 49.2812Z" fill="#47568C"></path><path d="M53.5781 49.2812H50.6484C49.8388 49.2812 49.1836 48.6261 49.1836 47.8164V30.1406C49.1836 29.331 49.8388 28.6758 50.6484 28.6758H53.5781C54.3878 28.6758 55.043 29.331 55.043 30.1406V47.8164C55.043 48.6261 54.3878 49.2812 53.5781 49.2812Z" fill="#47568C"></path></g><rect x="0.5" y="0.5" width="71" height="71" rx="9.78571" stroke="#E8CEB6"></rect><defs><clipPath id="clip0_656_238"><rect width="50" height="50" fill="white" transform="translate(11 11)"></rect></clipPath></defs></svg>