<svg xmlns="http://www.w3.org/2000/svg" width="72" height="72" viewBox="0 0 72 72" fill="none"><rect x="0.5" y="0.5" width="71" height="71" rx="9.78571" fill="white"></rect><path d="M48.7207 25.9643C48.1744 26.2522 47.5217 25.7886 47.6304 25.1722L48.4474 20.4022L44.9809 17.0238C44.5363 16.5922 44.7812 15.8312 45.3997 15.7425L50.1873 15.046L52.3298 10.7065C52.5613 10.2355 53.4488 10.2375 53.6774 10.705L55.8214 15.0459L60.609 15.7424C61.2308 15.8316 61.469 16.5954 61.0278 17.0237L57.5613 20.4021L58.3783 25.1721C58.4873 25.7905 57.8312 26.2507 57.2909 25.9656L53.0044 23.7144L48.7207 25.9643Z" fill="#FFDE46"></path><path d="M44.4609 17.0328L41 20.4037L41.8125 25.1586C41.9324 25.7578 41.3334 26.2739 40.7291 25.9713L36.4556 23.7142L36.4256 23.7443L32.1822 25.9713C31.635 26.245 30.9988 25.8603 31.0685 25.1586L31.8812 20.4037L28.4202 17.0328C27.9638 16.5007 28.3005 15.7989 28.8415 15.7387L33.6267 15.0467L35.7636 10.7129C35.914 10.4422 36.1848 10.3518 36.4256 10.3518H36.4556C36.6965 10.3518 36.9974 10.4422 37.1176 10.7129L39.2545 15.0467L44.0696 15.7387C44.6268 15.8007 44.9601 16.5339 44.4609 17.0328Z" fill="#FFDE46"></path><path d="M44.4606 17.0328L40.9998 20.4037L41.8122 25.1586C41.9321 25.7578 41.3331 26.2739 40.7288 25.9713L36.4554 23.7142L36.4253 23.7443V10.3518H36.4554C36.6962 10.3518 36.9971 10.4422 37.1174 10.7129L39.2542 15.0467L44.0694 15.7387C44.6265 15.8007 44.9599 16.5339 44.4606 17.0328Z" fill="#FFDE46"></path><path d="M14.5254 25.1722L15.3425 20.4022L11.8759 17.0239C11.4313 16.5923 11.6763 15.8313 12.2947 15.7426L17.0824 15.0461L19.2262 10.7038C19.3526 10.4478 19.6134 10.2857 19.899 10.2857C20.1845 10.2857 20.4453 10.4477 20.5718 10.7037L22.7165 15.046L27.5041 15.7425C28.1259 15.8317 28.3641 16.5955 27.9229 17.0238L24.4564 20.4022L25.2735 25.1722C25.3824 25.7906 24.7263 26.2508 24.186 25.9657L19.8996 23.7145L15.616 25.9643C15.0695 26.2522 14.4168 25.7886 14.5254 25.1722Z" fill="#FFDE46"></path><path d="M55.5581 49.4956C55.7687 50.0072 55.8891 50.5791 55.8891 51.181C55.8891 53.2575 54.4746 55.003 52.5485 55.5147C52.7592 56.0263 52.8796 56.5981 52.8796 57.2C52.8796 59.6979 50.8632 61.7143 48.3653 61.7143H40.5707C39.0967 61.7143 37.7648 61.4519 36.4276 60.9458C34.8757 60.354 33.4542 59.4431 32.2644 58.2533C30.6092 56.6282 28.352 55.6952 26.0648 55.6952H24.2892C23.4465 55.6952 22.7844 55.0331 22.7844 54.1905V42.1524C22.7844 41.3097 23.4465 40.6476 24.2892 40.6476H27.3288C30.8465 40.5703 33.6558 39.4879 36.4276 37.7435C40.7423 35.0114 40.8415 33.4945 40.8415 30.3551C40.8415 29.366 41.7133 28.6096 42.3463 28.6096C45.5364 28.6096 48.1245 30.1143 49.2682 32.6724C50.3215 35.0198 49.9303 37.8789 48.3051 40.6476H54.3843C56.8822 40.6476 58.8986 42.664 58.8986 45.1619C58.8986 47.2385 57.4841 48.984 55.5581 49.4956Z" fill="#FFCEBF"></path><path d="M55.558 49.4956C55.7686 50.0072 55.889 50.5791 55.889 51.181C55.889 53.2575 54.4746 55.003 52.5485 55.5147C52.7591 56.0263 52.8795 56.5981 52.8795 57.2C52.8795 59.6979 50.8631 61.7143 48.3652 61.7143H40.5706C39.0966 61.7143 37.7647 61.4519 36.4275 60.9458V37.7435C40.7422 35.0114 40.8414 33.4945 40.8414 30.3551C40.8414 29.366 41.7132 28.6096 42.3462 28.6096C45.5363 28.6096 48.1245 30.1143 49.2681 32.6724C50.3214 35.0198 49.9302 37.8789 48.305 40.6476H54.3843C56.8822 40.6476 58.8985 42.664 58.8985 45.1619C58.8985 47.2385 57.4841 48.984 55.558 49.4956Z" fill="#FFCEBF"></path><path d="M24.2889 58.7048H12.2509C11.4191 58.7048 10.7461 58.0317 10.7461 57.2V39.1429C10.7461 38.3112 11.4191 37.6381 12.2509 37.6381H24.2889C25.1206 37.6381 25.7937 38.3112 25.7937 39.1429V57.2C25.7937 58.0317 25.1206 58.7048 24.2889 58.7048Z" fill="#FF7B4A"></path><path d="M18.2701 46.6667C19.1012 46.6667 19.7749 45.993 19.7749 45.1619C19.7749 44.3309 19.1012 43.6572 18.2701 43.6572C17.4391 43.6572 16.7654 44.3309 16.7654 45.1619C16.7654 45.993 17.4391 46.6667 18.2701 46.6667Z" fill="#F5F2F1"></path><rect x="0.5" y="0.5" width="71" height="71" rx="9.78571" stroke="#E8CEB6"></rect></svg>